<?xml version="1.0" encoding="UTF-8" standalone="no"?>
<svg width="42px" height="38px" viewBox="0 0 42 38" version="1.1" xmlns="http://www.w3.org/2000/svg" xmlns:xlink="http://www.w3.org/1999/xlink">
    <!-- Generator: Sketch 39.1 (31720) - http://www.bohemiancoding.com/sketch -->
    <title>Imported Layers</title>
    <desc>Created with Sketch.</desc>
    <defs></defs>
    <g id="Symbols" stroke="none" stroke-width="1" fill="none" fill-rule="evenodd">
        <g id="ERROR" transform="translate(-13.000000, -13.000000)">
            <g id="Imported-Layers">
                <g transform="translate(13.000000, 13.000000)">
                    <path d="M36.6365063,27.9847832 L21.2508759,27.9847832 C21.0511737,27.9847832 20.8571772,28.0503144 20.6991985,28.1711597 L11.1010101,35.81154 C10.5101055,36.264974 9.64995944,35.8488857 9.64995944,35.1097214 L9.64995944,28.8733306 C9.64995944,28.3825508 9.24734548,27.9847832 8.75058618,27.9847832 L5.36385033,27.9847832 C2.95387235,27.9847832 1,26.0544298 1,23.6734609 L1,1 L41,1 L41,23.6734609 C41,26.0544298 39.0464843,27.9847832 36.6365063,27.9847832" id="Fill-1" fill="#FFFFFF"></path>
                    <path d="M10.5822826,37.9999986 C10.2894064,38.0003593 9.99546401,37.9321807 9.72071493,37.7958236 C9.04219488,37.458538 8.62100773,36.7731449 8.62100773,36.0065868 L8.62100773,29.7936785 L5.41536483,29.7936785 C2.42937901,29.7936785 0,27.3280669 0,24.2975471 L0,1.08219967 C0,0.48446472 0.477345429,0 1.06629657,0 L40.9337034,0 C41.5226546,0 42,0.48446472 42,1.08219967 L42,24.2975471 C42,27.3280669 39.570621,29.7936785 36.5846352,29.7936785 L21.309226,29.7936785 L11.8024813,37.5682009 C11.4392296,37.8549838 11.0112892,37.9999986 10.5822826,37.9999986 L10.5822826,37.9999986 Z M2.13259313,2.16439935 L2.13259313,24.2975471 C2.13259313,26.1344006 3.60514869,27.6292791 5.41536483,27.6292791 L8.79054889,27.6292791 C9.8728399,27.6292791 10.7536009,28.5228153 10.7536009,29.6208872 L10.7536009,35.646575 L20.0310919,28.0596338 C20.3893675,27.7775405 20.816597,27.6292791 21.2498688,27.6292791 L36.5846352,27.6292791 C38.3944959,27.6292791 39.8674069,26.1344006 39.8674069,24.2975471 L39.8674069,2.16439935 L2.13259313,2.16439935 L2.13259313,2.16439935 Z" id="Fill-2" fill="#FF0013"></path>
                    <path d="M12,7 L16,11" id="Fill-3" fill="#FFABB9"></path>
                    <path d="M15.8679245,12 C15.5781132,12 15.2883019,11.889427 15.0675472,11.668281 L11.3316981,7.93257438 C10.889434,7.49065979 10.889434,6.77363356 11.3316981,6.33171898 C11.7739623,5.88942701 12.4901887,5.88942701 12.9324528,6.33171898 L16.6683019,10.0674256 C17.110566,10.5093402 17.110566,11.2263664 16.6683019,11.668281 C16.4471698,11.889427 16.1573585,12 15.8679245,12" id="Fill-4" fill="#FF6470"></path>
                    <path d="M16,7 L12,11" id="Fill-5" fill="#FFABB9"></path>
                    <path d="M12.1320755,12 C11.8426415,12 11.5528302,11.889427 11.3316981,11.668281 C10.889434,11.2263664 10.889434,10.5093402 11.3316981,10.0674256 L15.0675472,6.33171898 C15.509434,5.88942701 16.2260377,5.88942701 16.6683019,6.33171898 C17.110566,6.77363356 17.110566,7.49065979 16.6683019,7.93257438 L12.9324528,11.668281 C12.7113208,11.889427 12.4218868,12 12.1320755,12" id="Fill-6" fill="#FF6470"></path>
                    <path d="M27,7 L31,11" id="Fill-7" fill="#FFABB9"></path>
                    <path d="M30.8679245,12 C30.5781132,12 30.2883019,11.889427 30.0671698,11.668281 L26.3316981,7.93257438 C25.889434,7.49065979 25.889434,6.77363356 26.3316981,6.33171898 C26.7739623,5.88942701 27.4901887,5.88942701 27.9324528,6.33171898 L31.6683019,10.0674256 C32.110566,10.5093402 32.110566,11.2263664 31.6683019,11.668281 C31.4471698,11.889427 31.1573585,12 30.8679245,12" id="Fill-8" fill="#FF6470"></path>
                    <path d="M31,7 L27,11" id="Fill-9" fill="#FFABB9"></path>
                    <path d="M27.1320755,12 C26.8422642,12 26.5528302,11.889427 26.3316981,11.668281 C25.889434,11.2263664 25.889434,10.5093402 26.3316981,10.0674256 L30.0671698,6.33171898 C30.509434,5.88942701 31.2260377,5.88942701 31.6683019,6.33171898 C32.110566,6.77363356 32.110566,7.49065979 31.6683019,7.93257438 L27.9324528,11.668281 C27.7113208,11.889427 27.4218868,12 27.1320755,12" id="Fill-10" fill="#FF6470"></path>
                    <path d="M29,18 L29,20.8143566 C29,21.4690323 28.1048148,22 27,22 C25.8955556,22 25,21.4690323 25,20.8143566 L25,18" id="Fill-11" fill="#FFABB9"></path>
                    <path d="M27,24 C25.3175,24 24,22.8833534 24,21.4581647 L24,18.1484196 C24,17.5141092 24.4796429,17 25.0714286,17 C25.6632143,17 26.1428571,17.5141092 26.1428571,18.1484196 L26.1428571,21.4087827 C26.2153571,21.5018047 26.5053571,21.7031609 27,21.7031609 C27.4942857,21.7031609 27.7842857,21.5018047 27.8571429,21.4087827 L27.8571429,18.1484196 C27.8571429,17.5141092 28.3364286,17 28.9285714,17 C29.5203571,17 30,17.5141092 30,18.1484196 L30,21.4581647 C30,22.8833534 28.6821429,24 27,24" id="Fill-12" fill="#FF6470"></path>
                    <path d="M13,17 L29,17" id="Fill-13" fill="#FFABB9"></path>
                    <path d="M29.9038462,18 L13.0961538,18 C12.4907115,18 12,17.5523333 12,17 C12,16.4476667 12.4907115,16 13.0961538,16 L29.9038462,16 C30.5092885,16 31,16.4476667 31,17 C31,17.5523333 30.5092885,18 29.9038462,18" id="Fill-14" fill="#FF6470"></path>
                </g>
            </g>
        </g>
    </g>
</svg>