<?xml version="1.0" encoding="UTF-8" standalone="no"?>
<svg width="400px" height="400px" viewBox="0 0 400 400" version="1.1" xmlns="http://www.w3.org/2000/svg" xmlns:xlink="http://www.w3.org/1999/xlink">
    <!-- Generator: Sketch 40.1 (33804) - http://www.bohemiancoding.com/sketch -->
    <title>Jewelbots Logo</title>
    <desc>Created with Sketch.</desc>
    <defs></defs>
    <g id="Page-1" stroke="none" stroke-width="1" fill="none" fill-rule="evenodd">
        <g id="Jewelbots-Logo">
            <g id="Group" transform="translate(40.000000, 29.000000)">
                <path d="M75.3031449,89.2080679 L75.4226737,88.85138 L158,170.991507 L77.8644764,250.70276 L77.8303253,250.600849 C69.5486869,258.295117 58.4495839,263 46.2405706,263 C20.7126337,263 0,242.414013 0,217.004246 C0,191.59448 20.7126337,170.991507 46.2405706,170.991507 C20.7126337,170.991507 0,150.40552 0,124.995754 C0,99.5859873 20.7126337,79 46.2405706,79 C57.2542959,79 67.3459419,82.8216561 75.3031449,89.2080679 Z M78.2080679,266.696855 L77.85138,266.577326 L159.991507,184 L239.70276,264.135524 L239.600849,264.169675 C247.295117,272.451313 252,283.550416 252,295.759429 C252,321.287366 231.414013,342 206.004246,342 C180.59448,342 159.991507,321.287366 159.991507,295.759429 C159.991507,321.287366 139.40552,342 113.995754,342 C88.5859873,342 68,321.287366 68,295.759429 C68,284.745704 71.8216561,274.654058 78.2080679,266.696855 Z M244.696855,252.791932 L244.577326,253.14862 L162,171.008493 L242.135524,91.2972399 L242.169675,91.3991507 C250.451313,83.7048832 261.550416,79 273.759429,79 C299.287366,79 320,99.5859873 320,124.995754 C320,150.40552 299.287366,171.008493 273.759429,171.008493 C299.287366,171.008493 320,191.59448 320,217.004246 C320,242.414013 299.287366,263 273.759429,263 C262.745704,263 252.654058,259.178344 244.696855,252.791932 Z M241.791932,75.3031449 L242.14862,75.4226737 L160.008493,158 L80.2972399,77.8644764 L80.3991507,77.8303253 C72.7048832,69.5486869 68,58.4495839 68,46.2405706 C68,20.7126337 88.5859873,0 113.995754,0 C139.40552,0 160.008493,20.7126337 160.008493,46.2405706 C160.008493,20.7126337 180.59448,0 206.004246,0 C231.414013,0 252,20.7126337 252,46.2405706 C252,57.2542959 248.178344,67.3459419 241.791932,75.3031449 Z" id="frame" stroke="#FFFFFF" stroke-width="40" fill="#FFFFFF"></path>
                <path d="M75.3031449,89.2080679 L75.4226737,88.85138 L158,170.991507 L77.8644764,250.70276 L77.8303253,250.600849 C69.5486869,258.295117 58.4495839,263 46.2405706,263 C20.7126337,263 0,242.414013 0,217.004246 C0,191.59448 20.7126337,170.991507 46.2405706,170.991507 C20.7126337,170.991507 0,150.40552 0,124.995754 C0,99.5859873 20.7126337,79 46.2405706,79 C57.2542959,79 67.3459419,82.8216561 75.3031449,89.2080679" id="4" fill="#7ADED4"></path>
                <path d="M78.2080679,266.696855 L77.85138,266.577326 L159.991507,184 L239.70276,264.135524 L239.600849,264.169675 C247.295117,272.451313 252,283.550416 252,295.759429 C252,321.287366 231.414013,342 206.004246,342 C180.59448,342 159.991507,321.287366 159.991507,295.759429 C159.991507,321.287366 139.40552,342 113.995754,342 C88.5859873,342 68,321.287366 68,295.759429 C68,284.745704 71.8216561,274.654058 78.2080679,266.696855" id="3" fill="#7ADED4"></path>
                <path d="M244.696855,252.791932 L244.577326,253.14862 L162,171.008493 L242.135524,91.2972399 L242.169675,91.3991507 C250.451313,83.7048832 261.550416,79 273.759429,79 C299.287366,79 320,99.5859873 320,124.995754 C320,150.40552 299.287366,171.008493 273.759429,171.008493 C299.287366,171.008493 320,191.59448 320,217.004246 C320,242.414013 299.287366,263 273.759429,263 C262.745704,263 252.654058,259.178344 244.696855,252.791932" id="2" fill="#7ADED4"></path>
                <circle id="center" stroke="#FFFFFF" stroke-width="12" fill="#5BC9E7" cx="160.5" cy="170.5" r="53.5"></circle>
                <path d="M241.791932,75.3031449 L242.14862,75.4226737 L160.008493,158 L80.2972399,77.8644764 L80.3991507,77.8303253 C72.7048832,69.5486869 68,58.4495839 68,46.2405706 C68,20.7126337 88.5859873,0 113.995754,0 C139.40552,0 160.008493,20.7126337 160.008493,46.2405706 C160.008493,20.7126337 180.59448,0 206.004246,0 C231.414013,0 252,20.7126337 252,46.2405706 C252,57.2542959 248.178344,67.3459419 241.791932,75.3031449" id="1" fill="#E2241A"></path>
            </g>
        </g>
    </g>
</svg>