<?xml version="1.0" encoding="UTF-8" standalone="no"?>
<svg width="109px" height="108px" viewBox="0 0 109 108" version="1.1" xmlns="http://www.w3.org/2000/svg" xmlns:xlink="http://www.w3.org/1999/xlink">
    <!-- Generator: Sketch 40.3 (33839) - http://www.bohemiancoding.com/sketch -->
    <title>FRIENDS - (color circle) - off</title>
    <desc>Created with Sketch.</desc>
    <defs>
        <circle id="path-1" cx="60" cy="60" r="50"></circle>
        <filter x="-50%" y="-50%" width="200%" height="200%" filterUnits="objectBoundingBox" id="filter-2">
            <feOffset dx="0" dy="0" in="SourceAlpha" result="shadowOffsetOuter1"></feOffset>
            <feGaussianBlur stdDeviation="2" in="shadowOffsetOuter1" result="shadowBlurOuter1"></feGaussianBlur>
            <feColorMatrix values="0 0 0 0 0   0 0 0 0 0   0 0 0 0 0  0 0 0 0.15 0" type="matrix" in="shadowBlurOuter1"></feColorMatrix>
        </filter>
    </defs>
    <g id="v.3.9---(flowchart-complete-app)" stroke="none" stroke-width="1" fill="none" fill-rule="evenodd">
        <g id="5---dashboard---(has-no-friends)---5" transform="translate(-133.000000, -247.000000)">
            <g id="FRIENDS---(color-circle)---add-(error)" transform="translate(127.000000, 241.000000)">
                <g id="circle---(inner)">
                    <use fill="black" fill-opacity="1" filter="url(#filter-2)" xlink:href="#path-1"></use>
                    <use fill="#FFFFFF" fill-rule="evenodd" xlink:href="#path-1"></use>
                </g>
                <g id="face" stroke-width="1" fill-rule="evenodd" transform="translate(43.000000, 63.000000)" fill="#BEBEBE">
                    <path d="M10.625,15.9375 C10.625,19.7992788 13.606845,22.5979651 17.2854651,22.5979651 C20.9635337,22.5979651 23.9459303,19.7992788 23.9459303,15.9375 L10.625,15.9375" id="Fill-1" transform="translate(17.285465, 19.267733) scale(1, -1) translate(-17.285465, -19.267733) "></path>
                    <path d="M31.8647837,5.93058894 C30.9506454,5.93058894 30.2097356,5.18967909 30.2097356,4.27554087 C30.2097356,3.74316707 29.7766647,3.31009615 29.2442909,3.31009615 C28.7124688,3.31009615 28.2788462,3.74316707 28.2788462,4.27554087 C28.2788462,5.18967909 27.538488,5.93058894 26.6237981,5.93058894 C25.7096599,5.93058894 24.96875,5.18967909 24.96875,4.27554087 C24.96875,1.91820072 26.8869507,0 29.2442909,0 C31.6021827,0 33.5198317,1.91820072 33.5198317,4.27554087 C33.5198317,5.18967909 32.7794736,5.93058894 31.8647837,5.93058894" id="Fill-4"></path>
                    <path d="M6.89603365,5.93058894 C5.98189543,5.93058894 5.24098558,5.18967909 5.24098558,4.27554087 C5.24098558,3.74316707 4.80791466,3.31009615 4.27554087,3.31009615 C3.74371875,3.31009615 3.31009615,3.74316707 3.31009615,4.27554087 C3.31009615,5.18967909 2.56973798,5.93058894 1.65504808,5.93058894 C0.740909856,5.93058894 0,5.18967909 0,4.27554087 C0,1.91820072 1.91820072,0 4.27554087,0 C6.63343269,0 8.55108173,1.91820072 8.55108173,4.27554087 C8.55108173,5.18967909 7.81072356,5.93058894 6.89603365,5.93058894" id="Fill-5"></path>
                </g>
            </g>
        </g>
    </g>
</svg>