<?xml version="1.0" encoding="UTF-8" standalone="no"?>
<svg width="68px" height="48px" viewBox="0 0 68 48" version="1.1" xmlns="http://www.w3.org/2000/svg" xmlns:xlink="http://www.w3.org/1999/xlink">
    <!-- Generator: Sketch 40.3 (33839) - http://www.bohemiancoding.com/sketch -->
    <title>Group 19</title>
    <desc>Created with Sketch.</desc>
    <defs></defs>
    <g id="Symbols" stroke="none" stroke-width="1" fill="none" fill-rule="evenodd">
        <g id="Group-19">
            <path d="M63.4344591,46.1570248 L4.56554092,46.1570248 C3.02722069,46.1570248 1.76859504,44.8867409 1.76859504,43.3337683 L1.76859504,4.35177881 C1.76859504,2.79920956 3.02722069,1.52892562 4.56554092,1.52892562 L63.4344591,1.52892562 C64.9727793,1.52892562 66.231405,2.79920956 66.231405,4.35177881 L66.231405,43.3337683 C66.231405,44.8867409 64.9727793,46.1570248 63.4344591,46.1570248" id="Fill-5" fill="#FFF0DF"></path>
            <path d="M63.2522391,45.9501805 L63.2522391,44.7516007 L4.74776093,44.7516007 C4.31175598,44.7512012 3.92022513,44.5742109 3.62717262,44.2809584 C3.33531139,43.9857082 3.15979756,43.591775 3.15940047,43.1530948 L3.15940047,4.53245636 C3.15979756,4.09377615 3.33531139,3.69984292 3.62717262,3.40459276 C3.92022513,3.11134024 4.31175598,2.93474948 4.74776093,2.93434995 L63.2522391,2.93434995 C63.688244,2.93474948 64.0797749,3.11134024 64.3732245,3.40459276 C64.6646886,3.69984292 64.8405995,4.09377615 64.8405995,4.53245636 L64.8405995,43.1530948 C64.8405995,43.591775 64.6646886,43.9857082 64.3732245,44.2809584 C64.0797749,44.5742109 63.688244,44.7512012 63.2522391,44.7516007 L63.2522391,47.1487603 C64.3450311,47.1487603 65.3437127,46.6964962 66.0576807,45.9761498 C66.7736342,45.2574014 67.2235373,44.2529915 67.2231402,43.1530948 L67.2231402,4.53245636 C67.2235373,3.43295915 66.7736342,2.42854928 66.0576807,1.70980092 C65.3437127,0.989454459 64.3450311,0.53679082 63.2522391,0.537190347 L4.74776093,0.537190347 C3.65496893,0.53679082 2.65668438,0.989454459 1.94231926,1.70980092 C1.22636578,2.42854928 0.776462677,3.43295915 0.776859767,4.53245636 L0.776859767,43.1530948 C0.776462677,44.2529915 1.22636578,45.2574014 1.94231926,45.9761498 C2.65668438,46.6964962 3.65496893,47.1487603 4.74776093,47.1487603 L63.2522391,47.1487603 L63.2522391,45.9501805" id="Fill-6" fill="#FF9F39"></path>
            <polyline id="Fill-7" fill="#FFD6AC" points="2.76033058 44.1735537 34.1905834 6.48760331 65.2396694 44.1735537"></polyline>
            <path d="M3.88186506,45.7182815 L34.1838021,8.60662504 L64.1133994,45.7130479 C64.5302926,46.2295612 65.2821327,46.3064544 65.7925087,45.8849506 C66.3032826,45.4630443 66.3792622,44.7021635 65.9623689,44.1852477 L35.1138561,5.93991919 C34.8871107,5.65931925 34.5509705,5.49707854 34.1929515,5.4958708 C33.8345346,5.49506563 33.4975989,5.65489085 33.2692623,5.93428304 L2.04204492,44.1796116 C1.62236703,44.6941119 1.69357304,45.4553952 2.2019601,45.8801196 C2.70994936,46.3052467 3.46218717,46.2327818 3.88226286,45.7182815 L3.88186506,45.7182815" id="Fill-8" fill="#FF9F39"></path>
            <path d="M66.231405,4.50413223 C66.231405,21.9269081 52.9124275,37.231405 35.0009753,37.231405 C17.0895231,37.231405 1.76859504,21.9269081 1.76859504,4.50413223" id="Fill-9" fill="#FFD6AC"></path>
            <path d="M64.835849,4.71321018 C64.8370426,13.2754628 61.6356847,21.318791 56.3044648,27.2023366 C53.6394517,30.1445098 50.4448577,32.5461368 46.8531776,34.2126209 C43.2607017,35.8787045 39.2711397,36.8120477 34.9947048,36.8124481 C26.4462117,36.8140498 18.4837987,33.0690653 12.6544306,27.1646986 C6.82546048,21.2611327 3.16216163,13.2266134 3.16415104,4.71321018 C3.16415104,4.05014011 2.62979562,3.51239669 1.97050527,3.51239669 C1.31121493,3.51239669 0.776859504,4.05014011 0.776859504,4.71321018 C0.778848914,13.9281223 4.72782699,22.5436287 10.9610452,28.8580098 C17.1942634,35.1719904 25.7435522,39.2132743 34.9947048,39.2148759 C39.6176949,39.2152763 43.957393,38.2018522 47.852657,36.3944257 C53.6971446,33.6824851 58.5393675,29.1923476 61.9193745,23.6703674 C65.2993814,18.1479867 67.2227426,11.5873569 67.2231405,4.71321018 C67.2231405,4.05014011 66.6887851,3.51239669 66.0294947,3.51239669 C65.3702044,3.51239669 64.835849,4.05014011 64.835849,4.71321018" id="Fill-10" fill="#FF9F39"></path>
            <path d="M25.5702479,12.4380165 C25.5702479,13.5336138 24.6820135,14.4214876 23.5867769,14.4214876 C22.4911796,14.4214876 21.6033058,13.5336138 21.6033058,12.4380165 C21.6033058,11.3427799 22.4911796,10.4545455 23.5867769,10.4545455 C24.6820135,10.4545455 25.5702479,11.3427799 25.5702479,12.4380165" id="Fill-11" fill="#EE9140"></path>
            <path d="M46.3966942,12.4380165 C46.3966942,13.5336138 45.5084598,14.4214876 44.4132231,14.4214876 C43.3176258,14.4214876 42.4297521,13.5336138 42.4297521,12.4380165 C42.4297521,11.3427799 43.3176258,10.4545455 44.4132231,10.4545455 C45.5084598,10.4545455 46.3966942,11.3427799 46.3966942,12.4380165" id="Fill-12" fill="#EE9140"></path>
            <path d="M29.5371901,22.6258451 C29.5375941,23.3503529 29.6984022,24.0550861 29.9715335,24.7080688 C30.3832507,25.687122 31.046685,26.561412 31.9020386,27.2181812 C32.7553719,27.8715846 33.8216345,28.3057844 34.9917355,28.3057844 C35.7699174,28.3062052 36.5072911,28.1126665 37.1610285,27.7903825 C38.1428466,27.3052736 38.9444628,26.5424788 39.5182002,25.6479936 C40.0891093,24.7526668 40.4434527,23.7134483 40.446281,22.6258451 C40.446281,21.9286851 39.9036547,21.3636364 39.2341598,21.3636364 C38.5646648,21.3636364 38.0220386,21.9286851 38.0220386,22.6258451 C38.0224426,22.9535986 37.9456749,23.3267917 37.7897153,23.6991433 C37.5573921,24.2587225 37.1448669,24.8039967 36.646281,25.18308 C36.1452709,25.5651085 35.5788062,25.781367 34.9917355,25.781367 C34.5986042,25.781367 34.2196143,25.6854391 33.8584022,25.5078884 C33.3173921,25.2440868 32.8236547,24.7838013 32.4826446,24.2482041 C32.1384022,23.7142898 31.9586042,23.1164236 31.9614325,22.6258451 C31.9614325,21.9286851 31.4188062,21.3636364 30.7493113,21.3636364 C30.0798163,21.3636364 29.5371901,21.9286851 29.5371901,22.6258451" id="Fill-13" fill="#EE9140"></path>
        </g>
    </g>
</svg>